<svg width="33" height="33" viewBox="0 0 33 33" fill="none"
    xmlns="http://www.w3.org/2000/svg">
    <path d="M29.5741 13.8887H28.5001V13.8333H16.5001V19.1667H24.0354C22.9361 22.2713 19.9821 24.5 16.5001 24.5C12.0821 24.5 8.50008 20.918 8.50008 16.5C8.50008 12.082 12.0821 8.5 16.5001 8.5C18.5394 8.5 20.3947 9.26934 21.8074 10.526L25.5787 6.75467C23.1974 4.53534 20.0121 3.16667 16.5001 3.16667C9.13675 3.16667 3.16675 9.13667 3.16675 16.5C3.16675 23.8633 9.13675 29.8333 16.5001 29.8333C23.8634 29.8333 29.8334 23.8633 29.8334 16.5C29.8334 15.606 29.7414 14.7333 29.5741 13.8887Z" fill="#FFC107"/>
    <path d="M4.7041 10.294L9.08477 13.5067C10.2701 10.572 13.1408 8.50001 16.5001 8.50001C18.5394 8.50001 20.3948 9.26934 21.8074 10.526L25.5788 6.75467C23.1974 4.53534 20.0121 3.16667 16.5001 3.16667C11.3788 3.16667 6.93743 6.05801 4.7041 10.294Z" fill="#FF3D00"/>
    <path d="M16.4999 29.8333C19.9439 29.8333 23.0732 28.5153 25.4392 26.372L21.3125 22.88C19.9289 23.9323 18.2382 24.5014 16.4999 24.5C13.0319 24.5 10.0872 22.2887 8.97788 19.2027L4.62988 22.5527C6.83655 26.8707 11.3179 29.8333 16.4999 29.8333Z" fill="#4CAF50"/>
    <path d="M29.574 13.8887H28.5V13.8333H16.5V19.1667H24.0353C23.5095 20.6443 22.5622 21.9354 21.3107 22.8807L21.3127 22.8793L25.4393 26.3713C25.1473 26.6367 29.8333 23.1667 29.8333 16.5C29.8333 15.606 29.7413 14.7333 29.574 13.8887Z" fill="#1976D2"/>
</svg>
